<?xml version="1.0" standalone="no"?>
<!DOCTYPE svg PUBLIC "-//W3C//DTD SVG 20010904//EN"
 "http://www.w3.org/TR/2001/REC-SVG-20010904/DTD/svg10.dtd">
<svg version="1.0" xmlns="http://www.w3.org/2000/svg"
 width="1500.000000pt" height="906.000000pt" viewBox="0 0 1500.000000 906.000000"
 preserveAspectRatio="xMidYMid meet">

<g transform="translate(0.000000,906.000000) scale(0.100000,-0.100000)"
fill="#000000" stroke="none">
<path d="M7660 9049 c-738 -84 -1372 -597 -1604 -1299 -19 -58 -127 -508 -241
-1000 -113 -492 -454 -1966 -756 -3275 -796 -3444 -799 -3457 -799 -3467 0
-12 2605 -10 2715 2 753 84 1388 594 1619 1300 18 58 140 564 269 1125 130
561 491 2123 802 3470 750 3245 725 3138 725 3147 0 11 -2634 8 -2730 -3z
m1001 -2963 c177 -38 323 -165 386 -336 23 -63 28 -90 28 -170 -1 -83 -11
-138 -78 -425 -90 -386 -96 -403 -153 -515 -105 -203 -290 -352 -530 -427
l-89 -27 -835 -6 -834 -5 -67 -287 c-36 -158 -76 -316 -89 -350 -97 -270 -345
-489 -625 -551 -93 -20 -195 -31 -195 -20 0 4 29 134 64 288 118 510 647 2800
653 2823 l5 22 1147 0 c945 0 1158 -3 1212 -14z"/>
<path d="M6836 5383 c-6 -19 -116 -494 -116 -500 0 -2 340 -2 756 -1 l757 3
58 250 c32 138 58 253 59 258 0 4 -339 7 -754 7 -710 0 -755 -1 -760 -17z"/>
<path d="M2855 7663 c-263 -20 -476 -76 -703 -184 -471 -223 -834 -632 -996
-1121 -19 -57 -94 -359 -166 -673 -240 -1039 -981 -4250 -987 -4273 l-5 -23
1358 4 c1464 4 1409 2 1621 56 249 64 486 176 692 329 93 68 253 222 332 318
138 169 266 401 333 604 19 58 152 614 296 1235 143 622 396 1713 560 2426
165 714 300 1300 300 1303 0 6 -2559 6 -2635 -1z m1845 -1580 c-1 -31 -47
-150 -84 -217 -139 -249 -384 -416 -669 -455 -51 -7 -354 -11 -866 -11 l-788
0 -26 -112 c-15 -62 -42 -179 -61 -260 l-33 -148 914 0 915 0 -7 -37 c-11 -62
-62 -175 -115 -255 -63 -97 -205 -231 -301 -285 -91 -52 -228 -98 -332 -112
-48 -7 -302 -11 -658 -11 l-579 0 -5 -22 c-123 -548 -153 -651 -218 -763 -138
-237 -398 -401 -679 -429 -59 -6 -68 -4 -68 10 0 43 575 2497 601 2564 110
287 395 509 703 550 34 4 577 8 1209 9 1086 1 1147 0 1147 -16z"/>
<path d="M11955 7659 c-814 -77 -1487 -652 -1685 -1439 -25 -98 -217 -927
-995 -4300 -64 -278 -118 -509 -118 -515 -1 -7 447 -10 1328 -10 1455 0 1418
-1 1660 60 632 159 1144 636 1344 1252 36 111 1151 4904 1151 4949 0 12 -173
14 -1297 13 -714 -1 -1338 -6 -1388 -10z m1250 -1574 c184 -39 329 -171 391
-355 22 -65 25 -221 6 -287 l-13 -43 -577 -2 -577 -3 -211 -910 c-115 -500
-216 -928 -223 -950 -88 -264 -322 -478 -602 -549 -61 -15 -229 -32 -229 -22
0 5 468 2035 539 2339 12 48 21 90 21 92 0 3 -121 5 -268 5 -148 0 -295 5
-328 11 -191 34 -350 182 -408 378 -19 64 -21 188 -4 260 l11 51 1201 0 c1019
0 1212 -3 1271 -15z"/>
<path d="M14343 2425 c-92 -25 -174 -74 -243 -144 -108 -110 -156 -239 -147
-391 8 -141 61 -256 164 -354 159 -153 427 -182 622 -69 250 145 331 486 175
731 -73 114 -188 197 -315 227 -79 18 -187 18 -256 0z m292 -154 c80 -37 152
-107 191 -186 26 -55 29 -69 29 -165 0 -93 -3 -112 -27 -162 -37 -80 -107
-152 -187 -191 -61 -30 -72 -32 -171 -32 -95 0 -110 3 -163 28 -80 40 -151
112 -190 194 -29 61 -32 77 -31 158 0 69 6 104 23 147 26 66 103 157 165 193
107 63 248 69 361 16z"/>
<path d="M14300 1920 l0 -260 55 0 55 0 0 95 0 95 39 0 40 0 48 -92 49 -93 63
-3 63 -3 -20 33 c-10 18 -36 65 -57 105 l-37 72 40 38 c90 86 54 229 -66 263
-20 5 -90 10 -154 10 l-118 0 0 -260z m255 145 c30 -30 32 -64 4 -99 -18 -23
-27 -26 -85 -26 l-64 0 0 75 0 75 60 0 c51 0 65 -4 85 -25z"/>
</g>
</svg>
